<?xml version="1.0" encoding="utf-8"?>
<!-- Generator: Adobe Illustrator 16.0.0, SVG Export Plug-In . SVG Version: 6.00 Build 0)  -->
<!DOCTYPE svg PUBLIC "-//W3C//DTD SVG 1.1//EN" "http://www.w3.org/Graphics/SVG/1.1/DTD/svg11.dtd">
<svg version="1.1" id="Layer_1" xmlns="http://www.w3.org/2000/svg" xmlns:xlink="http://www.w3.org/1999/xlink" x="0px" y="0px"
	 width="460px" height="97px" viewBox="0 0 460 97" enable-background="new 0 0 460 97" xml:space="preserve">
<g>
	<g opacity="0.8">
		<g opacity="0.8">
			<path fill="#F8C7DA" d="M274.895,54.41c0.578,3.385,3.119,1.283,5.744,0.096c-0.421-0.082-0.842-0.177-1.268-0.277
				C277.892,54.297,276.398,54.367,274.895,54.41z"/>
			<path fill="#F8C7DA" d="M279.371,54.229c0.426,0.101,0.847,0.195,1.268,0.277c0.329-0.149,0.652-0.279,0.971-0.383
				C280.873,54.157,280.123,54.193,279.371,54.229z"/>
			<path fill="#F8C7DA" d="M274.771,52.685c0,0.693,0.047,1.258,0.123,1.726c1.504-0.043,2.997-0.113,4.477-0.182
				C277.813,53.857,276.271,53.36,274.771,52.685z"/>
			<path fill="#F8C7DA" d="M281.609,54.123c0.786-0.04,1.591-0.08,2.367-0.12C283.241,53.74,282.436,53.849,281.609,54.123z"/>
			<path fill="#FCEFF5" d="M342.247,27.343c-18.981-1.066-37.778-2.01-56.486-2.834c5.199,1.809,10.25,3.649,14.776,4.865
				C314.142,33.271,328.19,29.81,342.247,27.343z"/>
			<path fill="#FCECF3" d="M257.772,23.645c-6.265-0.207-12.538-0.414-18.814-0.621C245.059,23.896,251.379,24.339,257.772,23.645z"
				/>
			<path fill="#FCEFF5" d="M341.326,28.249c-14.054,2.465-28.103,5.927-41.705,2.03c-4.531-1.215-9.583-3.055-14.781-4.866
				c-14.882-0.659-29.711-1.25-44.547-1.769c-6.4,0.694-12.714,0.251-18.815-0.621c-58.66-1.832-117.703-2.63-180.441-2.63
				c-3.679,0-23.007,1.539-26.686,4.173l-6.44,1.975v1.216c5.678,0.122,11.292,0.625,17.479-0.114c3.686,0,7.36-1.318,11.045-1.318
				c16.564,0,31.285,1.318,49.691-1.319c5.525-1.315,14.719,3.955,20.247,2.638c22.084-1.318,40.49,3.955,60.733,2.635
				c16.564-1.318,27.606-3.954,44.171-2.635c3.68,0,9.203-1.318,12.882-1.318c23.923,1.318,47.853,2.635,71.78,5.273
				c5.519,0,11.041,5.271,16.563,3.954c7.364-2.633,14.723-3.954,22.088-5.273c1.84,0,3.68,3.955,7.358,3.955
				c14.195,1.015,27.295-2.654,40.139-2.579c-0.721-0.393-1.44-0.754-2.167-1.095C366.952,29.732,354.092,28.964,341.326,28.249z"/>
			<g>
				<path fill="#FCEFF5" d="M419.964,32.046c-2.037,0.644-4.028,1.199-5.929,1.601c12.051,2.651,26.268,3.087,39.488,0.787
					C442.223,33.596,431.054,32.8,419.964,32.046z"/>
				<path fill="#FCEFF5" d="M399.572,31.655c0.131,0.076,0.26,0.15,0.39,0.226c-6.715-0.442-13.4-0.883-20.043-1.321
					c0.727,0.341,1.446,0.702,2.167,1.095c3.815,0.019,7.605,0.356,11.397,1.265c1.004,0.258,2.033,0.497,3.071,0.728
					c1.434-0.304,2.929-0.716,4.453-1.166c0.254,0.147,0.506,0.281,0.757,0.438c3.172,1.817,7.438,1.751,12.271,0.728
					c-1.032-0.23-2.069-0.469-3.072-0.728C407.177,32.011,403.38,31.674,399.572,31.655z"/>
			</g>
			<path fill="#FBDDE8" d="M394.399,67.184c-12.882-3.954-20.244,2.64-33.128,0c-9.397-1.68-18.465-1.449-27.481-0.838
				c20.534,1.695,40.342,3.283,60.31,3.153C393.797,68.85,393.768,68.093,394.399,67.184z"/>
			<path fill="#FADAE7" d="M447.121,50.474c-3.716,1.979-8.454,2.934-14.994,2.211c-11.041-1.316-20.241-5.269-29.444-5.269
				c-25.762-1.319-55.217,9.226-80.98,0c-23.926-7.91-51.532-2.637-79.141-2.637c-5.522,0-12.881,2.637-18.403,2.637
				c-18.401,0-34.965,0-51.532,0c-12.885,0-14.721-6.591-29.45-5.272c-1.836,0-5.515-2.638-7.358-2.638
				c-42.369,1.265-86.416,0.092-128.92-2.333c-0.4,2.89-0.401,5.696,0.015,8.279c29.218-0.702,59.293,3.449,86.575,4.599
				c36.808,2.635,73.619,0,110.429,2.635c17.258,1.126,35.842,2.233,53.498,1.726c-0.082-0.468-0.124-1.032-0.124-1.726
				c1.5,0.676,3.035,1.173,4.601,1.544c0.75-0.035,1.492-0.07,2.238-0.105c0.819-0.274,1.63-0.383,2.361-0.12
				c-0.779,0.04-1.576,0.08-2.361,0.12c-0.325,0.104-0.648,0.233-0.976,0.383c13.467,2.577,28.455-4.114,36.468-1.821
				c27.603,7.911,62.576-1.316,86.497,2.639c24.332,2.748,45.096,2.304,62.913-3.544C448.352,51.37,447.708,50.938,447.121,50.474z"
				/>
			<path fill="#FBDFEA" d="M445.565,38.189c-0.741-0.808-1.417-1.502-1.97-2.038c-16.551,7.124-39.979,6.835-61.158,5.992
				c-1.838,0-5.517-2.638-9.204-3.955c-9.2-1.318-14.723,5.271-22.081,3.955c-64.416-10.544-128.83-2.638-193.247-1.319
				c-3.682,0,0-6.59-5.526-7.905c-14.718-1.32-27.604,0-40.487-3.958c-1.841-1.317-7.36,2.638-12.883,3.958
				c-20.245,3.951-38.648-2.64-58.893,0c-10.912,1.949-21.821,0.291-32.733,1.446c-0.202,0.939-0.36,1.875-0.486,2.806
				c42.505,2.426,86.551,3.598,128.92,2.333c1.843,0,5.522,2.638,7.358,2.638c11.374-1.02,13.217,5.272,29.45,5.272
				c16.87,0,32.856,0,51.532,0c5.522,0,12.88-2.637,18.403-2.637c27.608,0,55.215-5.273,79.141,2.637
				c25.764,9.226,55.219-1.319,80.98,0c9.203,0,18.403,3.953,29.444,5.269c6.54,0.723,11.278-0.231,14.994-2.211
				c-4.055-3.246-5.787-7.766-5.787-12.285C442.375,38.189,444.009,38.189,445.565,38.189z"/>
			<path fill="#FCE7EF" d="M455.138,48.072c-5.056-12.52-13.069-16.669-6.071-8.995c-1.554,0-3.186,0-4.229,0
				c0,4.521,1.729,9.041,5.787,12.283C452.319,50.457,453.802,49.343,455.138,48.072z"/>
			<path fill="#FCE7EF" d="M442.251,34.892c-2.08-0.153-4.142-0.305-6.214-0.458c-13.223,2.301-27.436,1.865-39.482-0.787
				c-4.837,1.023-9.101,1.089-12.276-0.728c-0.728-0.458-1.459-0.866-2.192-1.265c-12.844-0.075-25.943,3.594-40.139,2.579
				c-3.679,0-5.519-3.955-7.358-3.955c-7.365,1.32-14.724,2.64-22.088,5.273c-5.521,1.318-11.044-3.954-16.563-3.954
				c-23.927-2.638-47.856-3.955-71.78-5.273c-3.679,0-9.202,1.318-12.882,1.318c-16.564-1.318-27.606,1.317-44.171,2.635
				c-20.243,1.32-38.648-3.954-60.733-2.635c-5.527,1.317-14.722-3.953-20.247-2.638c-18.407,2.638-33.127,1.319-49.691,1.319
				c-3.686,0-7.359,1.318-11.045,1.318c-6.187,0.739-11.801,0.236-17.479,0.114v4.497c-0.201,0.704-0.372,1.405-0.527,2.11
				c10.912-1.155,21.821,0.502,32.733-1.446c20.244-2.64,38.648,3.951,58.893,0c5.523-1.32,11.042-5.275,12.883-3.958
				c12.883,3.958,25.769,2.638,40.487,3.958c5.526,1.314,1.844,7.905,5.526,7.905c64.417-1.319,128.831-9.225,193.247,1.319
				c7.358,1.316,12.881-5.273,22.081-3.955c3.688,1.316,7.366,3.955,9.204,3.955c21.18,0.843,44.607,1.131,61.158-5.992
				C442.782,35.354,442.251,34.892,442.251,34.892z"/>
			<path fill="#FBDDE8" d="M213.952,60.723c8.064,0.063,16.343,0.224,24.927,0.532c0.534,0,1.827,0.04,3.634,0.1
				C233.053,60.752,223.269,59.976,213.952,60.723z"/>
			<path fill="#FBDDE8" d="M256.464,61.899c9.218,0.367,19.661,0.784,25.258,1.008c-6.101-2.157-12.538-3.631-19.831-3.631
				C261.891,59.276,258.336,61.816,256.464,61.899z"/>
			<g>
				<path fill="#F8CBDC" d="M408.123,69.101c13.329-0.677,26.823-2.268,40.742-5.251C434.897,63.191,421.452,65.596,408.123,69.101z
					"/>
				<path fill="#F9D1E0" d="M449.031,51.779c-17.817,5.848-38.581,6.292-62.913,3.544c-23.921-3.955-58.895,5.272-86.497-2.639
					c-8.013-2.293-23.001,4.398-36.468,1.821c-2.622,1.188-5.166,3.289-5.739-0.096c-17.655,0.508-36.24-0.6-53.498-1.726
					c-36.811-2.635-73.621,0-110.429-2.635c-27.282-1.15-57.357-5.301-86.575-4.599c1.224,7.555,6.115,13.168,15.717,13.168
					c37.9,4.07,69.948,3.943,102.17,3.231c12.091-1.644,24.072-2.478,35.797-1.779c-6.065,0.326-12.177,0.944-18.314,1.779
					c14.601-0.324,29.256-0.756,44.481-0.99c-0.442-0.048-0.893-0.096-1.34-0.143c3.644-0.015,7.302-0.022,11.042,0.005
					c9.317-0.747,19.1,0.029,28.568,0.632c3.312,0.13,8.396,0.328,13.947,0.545c1.868-0.083,19.153-1.149,25.253,1.008
					c1.896,0.063,3.241,0.104,3.786,0.104c16.778,0.705,32.741,2.052,48.288,3.335c9.014-0.611,18.08-0.842,27.479,0.838
					c12.886,2.64,32.523,1.666,32.83,2.315c4.658-0.03,9.333-0.163,14.021-0.398c13.328-3.505,26.781-5.909,40.749-5.251
					c3.593-0.771,7.21-1.632,10.864-2.595c6.614-1.746,9.462-4.624,10.158-7.848C451.168,52.939,450.045,52.392,449.031,51.779z"/>
			</g>
		</g>
	</g>
</g>
<g>
	<path fill="#808080" d="M343.652,52.3v19.226h2.533c0.524,0.019,0.789,0.253,0.789,0.704c0,0.432-0.265,0.666-0.789,0.704h-4.308
		v-1.408c-0.131,0.526-0.674,0.992-1.632,1.39c-0.544,0.22-1.09,0.327-1.633,0.327c-1.632,0-2.945-0.535-3.941-1.604
		c-1.183-1.256-1.772-3.153-1.772-5.687c0-2.945,0.825-5.094,2.477-6.445c1.07-0.862,2.205-1.294,3.406-1.294
		c1.444,0,2.477,0.524,3.096,1.575v-6.079h-2.364c-0.507-0.038-0.759-0.273-0.759-0.705c0-0.45,0.262-0.686,0.787-0.703H343.652z
		 M341.878,63.164c-0.038-1.106-0.323-1.973-0.858-2.603c-0.535-0.628-1.243-0.944-2.125-0.944c-1.031,0-1.941,0.462-2.729,1.384
		c-0.958,1.168-1.437,2.84-1.437,5.022c0,1.279,0.234,2.446,0.704,3.499c0.713,1.542,1.83,2.313,3.35,2.313
		c0.825,0,1.548-0.376,2.168-1.131c0.619-0.753,0.928-1.702,0.928-2.851V63.164C341.878,63.221,341.878,63.221,341.878,63.164z"/>
	<path fill="#808080" d="M359.473,65.727h-9.121c0,4.073,1.252,6.109,3.756,6.109c2.072,0,3.267-0.996,3.586-2.983
		c0-0.265,0.096-0.396,0.283-0.396h1.13c0.15,0,0.227,0.112,0.227,0.338c-0.134,1.54-0.724,2.692-1.774,3.463
		c-0.882,0.657-2.018,0.984-3.407,0.984c-1.802,0-3.199-0.693-4.192-2.083c-0.959-1.331-1.437-3.161-1.437-5.489
		c0-2.495,0.655-4.429,1.971-5.799c1.052-1.088,2.252-1.632,3.604-1.632c1.313,0,2.43,0.441,3.35,1.323
		C358.798,60.838,359.473,62.894,359.473,65.727z M357.615,64.207c0-1.521-0.414-2.703-1.239-3.547
		c-0.639-0.677-1.343-1.015-2.112-1.015c-0.844,0-1.595,0.311-2.25,0.931c-0.846,0.806-1.361,2.017-1.55,3.631H357.615z"/>
	<path fill="#808080" d="M367.147,58.212c1.317,0,2.53,0.365,3.644,1.097v2.364c-0.077,0.527-0.331,0.79-0.762,0.79
		c-0.45,0-0.693-0.261-0.731-0.781v-1.533c-0.813-0.353-1.521-0.531-2.123-0.531c-0.66,0-1.265,0.179-1.813,0.533
		c-0.697,0.47-1.047,1.134-1.047,1.996c0,0.88,0.486,1.582,1.463,2.106c0.863,0.357,1.726,0.713,2.591,1.068
		c1.876,0.879,2.814,2.267,2.814,4.157c0,1.029-0.507,1.939-1.521,2.726c-0.882,0.691-1.971,1.05-3.265,1.065
		c-1.896,0.02-3.35-0.478-4.363-1.491v-2.561c0.074-0.525,0.328-0.788,0.76-0.788c0.451,0,0.693,0.263,0.732,0.788v1.745
		c0.168,0.17,0.496,0.339,0.984,0.507c0.602,0.226,1.201,0.337,1.802,0.337c0.863,0,1.576-0.234,2.14-0.704
		c0.563-0.468,0.845-1.03,0.845-1.688c0-0.939-0.508-1.736-1.521-2.394c-0.112-0.055-0.797-0.366-2.056-0.929
		c-0.937-0.412-1.519-0.704-1.745-0.873c-0.994-0.751-1.49-1.764-1.49-3.039c0-1.635,0.752-2.787,2.259-3.463
		C365.535,58.378,366.338,58.212,367.147,58.212z"/>
	<path fill="#808080" d="M377.49,58.548v12.978h2.11c0.526,0.019,0.788,0.253,0.788,0.704c0,0.432-0.262,0.666-0.788,0.704h-5.995
		c-0.527-0.057-0.789-0.292-0.789-0.704c0-0.451,0.262-0.686,0.789-0.704h2.11V59.956h-2.428c-0.501-0.036-0.753-0.258-0.753-0.662
		c0-0.441,0.263-0.689,0.785-0.746H377.49z M377.912,53.708c0,0.354-0.127,0.665-0.381,0.928c-0.253,0.263-0.558,0.394-0.915,0.394
		c-0.374,0-0.689-0.131-0.943-0.394s-0.378-0.573-0.378-0.928c0-0.357,0.124-0.666,0.378-0.931c0.254-0.263,0.569-0.394,0.943-0.394
		c0.357,0,0.662,0.131,0.915,0.394C377.785,53.042,377.912,53.351,377.912,53.708z"/>
	<path fill="#808080" d="M395.87,61.616c-0.412,0.508-0.666,0.762-0.759,0.762c-0.451,0-0.694-0.252-0.731-0.754v-1.53
		c-0.227-0.205-0.489-0.307-0.789-0.307c-0.488,0-0.929,0.196-1.323,0.59c0.264,0.317,0.488,0.837,0.676,1.557
		c0.188,0.721,0.262,1.361,0.224,1.922c-0.055,0.786-0.243,1.508-0.563,2.161c-0.712,1.439-1.94,2.312-3.688,2.609
		c-0.505,0.095-1.004,0.142-1.491,0.142c-0.638,0-0.996,0-1.069,0c-1.259,0.112-1.887,0.487-1.887,1.125
		c0,0.47,0.235,0.789,0.704,0.958c0.563,0.186,1.745,0.282,3.547,0.282c1.877,0,3.35,0.393,4.419,1.182
		c1.014,0.751,1.521,1.736,1.521,2.956c0,1.313-0.67,2.392-2.013,3.237c-1.341,0.844-2.988,1.267-4.939,1.267
		c-2.083,0-3.716-0.518-4.898-1.55c-0.977-0.844-1.454-1.756-1.436-2.729c0.036-1.972,1.182-3.2,3.435-3.688
		c-1.352-0.243-2.027-0.853-2.027-1.829c0-0.939,0.742-1.613,2.224-2.026c-1.651-0.864-2.449-2.347-2.394-4.449
		c0.057-2.102,0.854-3.603,2.394-4.504c0.901-0.506,1.867-0.759,2.899-0.759c0.958,0,1.745,0.158,2.364,0.479
		c0.019,0,0.385,0.245,1.1,0.73c0.862-0.712,1.649-1.07,2.364-1.07c0.693,0,1.406,0.293,2.138,0.874V61.616z M392.604,75.241
		c0-1.933-1.604-2.9-4.813-2.9c-2.929,0-4.392,0.995-4.392,2.984c0,1.015,0.412,1.794,1.239,2.337
		c0.751,0.508,1.774,0.762,3.068,0.762c1.443,0,2.621-0.269,3.533-0.805C392.15,77.085,392.604,76.292,392.604,75.241z
		 M391.254,63.391c0-1.182-0.337-2.141-1.013-2.872c-0.639-0.675-1.408-1.013-2.31-1.013c-0.917,0-1.698,0.338-2.334,1.013
		c-0.696,0.731-1.043,1.69-1.043,2.872c0,2.74,1.136,4.111,3.406,4.111c1.052,0,1.861-0.368,2.435-1.1
		C390.969,65.67,391.254,64.667,391.254,63.391z"/>
	<path fill="#808080" d="M412.647,72.229c0,0.432-0.263,0.666-0.788,0.704h-3.716v-8.784c0-1.294-0.112-2.233-0.336-2.814
		c-0.374-0.92-1.103-1.379-2.187-1.379c-1.288,0-2.288,0.686-2.999,2.056c-0.561,1.087-0.85,2.355-0.869,3.8v5.714h2.083
		c0.508,0.019,0.762,0.253,0.762,0.704c0,0.432-0.254,0.666-0.764,0.704h-5.991c-0.545-0.038-0.818-0.272-0.818-0.704
		c0-0.451,0.271-0.686,0.816-0.704h2.083V59.956h-2.428c-0.501-0.036-0.753-0.267-0.753-0.689c0-0.425,0.263-0.662,0.789-0.719
		h4.221v3.237c0.749-2.325,2.263-3.488,4.546-3.488c1.607,0,2.703,0.815,3.282,2.448c0.261,0.731,0.392,1.595,0.392,2.589v8.191
		h1.858C412.375,71.563,412.647,71.798,412.647,72.229z"/>
</g>
<g>
	<path fill="#231F20" d="M45.96,76.68c-0.421,3.657-1.689,7.037-3.8,9.712c-1.69,2.392-3.519,4.081-6.333,5.348
		c-2.252,0.985-5.069,1.69-7.742,1.409c-5.35-0.142-10.839-3.1-13.512-7.322c-0.846-1.687-1.548-3.237-1.971-5.066
		c-0.142-1.267,1.689-1.548,1.971-0.423c0.42,1.408,0.985,2.957,1.829,4.223c2.814,3.801,7.179,5.632,11.823,5.913
		c2.394,0,4.504-0.424,6.617-1.267c1.829-1.127,3.519-2.814,4.786-4.504c1.971-2.534,2.956-5.49,3.377-8.446
		c0.423-2.252,0.423-4.786,0.423-7.179c-0.139-2.252-0.139-3.52-0.563-7.319c-0.423-3.377-0.704-7.18-0.704-11.261
		c-1.829,1.69-4.362,3.238-6.756,4.081c-2.111,0.565-4.646,0.847-6.899,0.565c-1.968-0.143-3.8-0.565-5.067-2.112
		c-0.844-0.844-1.266-2.11-1.125-3.52c0.281-2.392,1.971-5.348,3.238-7.179c2.533-3.8,6.333-7.458,10.275-9.148
		c1.548-0.563,3.659-1.408,5.348-1.267c1.408,0.423,2.252,1.548,2.252,2.814c-0.139,1.267-0.844,2.252-1.689,3.097
		c-0.844,0.704-2.11-0.421-1.406-1.267c0.139-0.42,0.42-1.267,0.42-1.688c-1.125,0-2.814,0.702-3.658,1.267
		c-3.379,1.688-6.756,4.643-9.009,7.881c-1.267,1.409-2.814,3.941-2.956,5.912c-0.281,0.563-0.281,1.267,0.142,1.689
		c0.702,0.845,2.392,0.986,3.377,0.986c1.69,0.281,4.504-0.564,5.913-0.986c3.238-1.127,6.615-3.802,8.023-6.616
		c0.281-0.985,0.421-2.251,0.421-3.377c0.423-1.689,2.816-1.689,3.237-0.142c0.423,1.689,0,3.096-0.702,4.365
		c-0.142,1.968-0.142,4.081-0.142,5.91c0,3.237,0.142,6.617,0.423,9.713c0.421,3.661,0.844,5.066,0.844,7.461
		C46.664,71.61,46.664,74.146,45.96,76.68z"/>
	<path fill="#231F20" d="M75.798,34.452c-1.688-0.143-3.659-0.143-5.348,0.28c-2.675,0.563-4.362,2.252-6.052,4.646
		c-1.69,2.11-2.814,4.785-3.66,7.319c-0.563,2.391-0.986,4.223-1.407,5.771c-0.423,0.985-1.126,2.109-2.112,2.675
		c-0.843,0.42-2.11,0.42-2.814-0.143c-0.843-0.703-1.408-2.813-2.112-5.912c-0.421-3.235-0.844-6.756-0.983-8.867
		c-0.284-2.11,2.672-2.393,2.955-0.281c0.141,1.971,0.564,5.771,0.985,8.727c0.281,0.843,0.704,2.252,0.846,3.377
		c0.282-0.705,1.125-3.377,1.971-6.192c0.844-2.957,2.111-5.913,3.8-8.165c2.11-2.957,4.644-4.927,8.023-5.49
		c2.111-0.423,4.223-0.281,6.333,0.423C77.206,33.043,76.783,34.452,75.798,34.452z"/>
	<path fill="#231F20" d="M117.602,52.188c-4.083,1.125-8.869,2.391-13.092,2.533c-3.377,0.28-7.177,0-9.147-2.675
		c-0.846-1.125-1.408-2.534-1.408-4.082c-1.548,1.268-3.377,2.533-5.348,3.66c-2.113,1.268-4.365,2.252-6.898,2.954
		c-2.11,0.423-4.224,0.423-5.49-1.124c-1.548-1.408-1.267-3.942-0.705-5.913c1.55-3.096,5.07-6.333,7.884-8.444
		c2.533-2.112,6.756-4.788,9.853-4.645c1.97,0.422,2.956,1.97,2.816,3.66c-0.284,1.267-0.846,2.11-1.269,2.252
		c-1.125,1.125-2.534-0.423-1.688-1.409c0-0.281,0.14-0.843,0.14-1.126c0-0.563-1.83,0-2.252,0c-1.971,0.845-4.082,2.393-5.771,3.66
		c-2.252,1.83-5.629,4.646-6.896,7.179c-0.423,1.406-0.282,2.533,0,2.956c0.421,0.563,2.111,0.422,2.673,0.422
		c2.394-0.705,4.504-1.549,6.617-2.534c2.11-1.266,5.208-3.376,6.896-5.348c0.422-1.267,1.126-2.252,1.689-3.098
		c0.844-1.267,1.69-2.111,2.534-2.814c0.845-0.563,1.97-0.423,2.393,0.281c0.563,0.422,0.563,1.266,0.14,1.831
		c-0.844,1.688-1.829,2.955-3.377,4.221c-1.267,2.535-0.985,4.927-0.423,5.773c1.267,2.11,4.646,2.533,7.037,2.533
		C108.31,53.031,113.8,52.61,117.602,52.188z"/>
	<path fill="#231F20" d="M140.542,32.762c-4.223,2.394-10.698,4.646-16.889,5.49c0.421,11.683,0.844,13.089,0.844,14.779
		c-0.142,1.127-0.423,2.112-1.267,2.394c-0.844,0.139-1.689-0.281-1.829-1.127c-0.281-0.422-0.281-0.985,0.14-1.406
		c0,0-0.563-9.713-0.844-14.358c-1.83,0.141-3.801,0.141-5.49-0.281c-1.69-0.423-3.379-0.844-4.365-2.11
		c-0.844-0.565-1.267-1.689-1.547-2.534c0-0.845,0.704-1.689,1.547-1.689c1.269-0.142,1.269,1.125,1.69,1.548
		c0.563,0.986,2.112,1.408,3.098,1.689c1.688,0.421,3.377,0.421,4.925,0.421c0-5.487-0.42-18.017,0.423-23.224
		c0.142-2.112,3.097-1.689,2.957,0c0,1.407-0.846,4.645-0.281,22.942C129,34.875,131.676,34.452,140.542,32.762z"/>
	<path fill="#231F20" d="M170.382,52.188c-3.238,0.704-6.617,1.548-9.994,1.971c-3.379,0.563-6.898,1.267-10.275,1.405
		c-3.237,0.282-8.445,0.424-10.979-1.405c-1.127-0.846-1.548-2.112-1.548-3.38c0-1.97,0.702-4.081,1.267-5.771
		c1.125-2.533,2.533-4.786,4.504-6.896c2.11-2.394,5.629-4.646,8.585-4.927c2.392-0.142,4.081,1.125,4.504,3.237
		c0.563,2.533-0.844,6.052-2.395,8.163c-2.251,2.956-5.066,5.489-8.443,7.039c-0.846,0.422-1.689,0.845-2.675,1.268
		c2.11,0.421,5.066,0.421,7.179,0.421c3.377,0,6.757-0.281,10.134-0.421C163.625,52.61,167.003,52.469,170.382,52.188z
		 M140.821,51.624c1.269-0.703,2.675-1.266,3.802-1.971c2.955-1.408,5.207-3.799,6.896-6.475c1.127-1.548,2.394-4.504,1.97-6.194
		c0-0.423-0.422-0.843-1.266-0.563c-1.267,0.14-4.081,1.267-6.615,3.942c-1.409,1.688-2.956,4.081-3.802,5.91
		C141.244,47.822,140.54,50.074,140.821,51.624z"/>
	<path fill="#231F20" d="M187.693,65.138c1.69,5.91,1.408,11.822,0.142,16.889c-0.985,3.8-3.098,7.319-5.913,9.853
		c-2.533,2.395-5.631,3.803-8.869,2.957c-2.11-0.563-3.8-2.111-5.067-3.94c-1.829-2.394-2.957-5.351-3.519-8.025
		c-1.267-5.348-1.267-11.4-1.125-16.89c0.282-6.333,1.125-12.526,2.111-18.86c-0.423-0.985-0.563-2.112-0.423-3.379
		c0.283-0.985,0.705-2.11,1.689-2.675c0.424-2.111,0.847-4.504,1.972-8.304c0.563-2.252,2.111-7.32,3.379-9.43
		c0.844-1.269,2.111-1.971,3.377-0.846c0.985,0.846,0.562,2.675-0.843,2.675c-1.127,1.97-2.534,6.615-2.957,8.445
		c-0.704,2.111-1.266,5.067-1.97,7.177c2.956,0.705,5.49,2.112,7.6,4.223c2.394,2.112,4.083,5.066,5.49,7.884
		c3.66,0.14,7.037,0,10.417-0.281c-2.957,0.844-6.194,1.548-9.571,1.968C185.299,57.958,186.988,62.181,187.693,65.138z
		 M185.299,65.558c-0.563-2.814-2.252-7.46-4.221-10.979c-2.535,0.143-5.069,0-7.321-0.702c-2.111-0.563-4.223-1.688-5.771-2.955
		c-0.843,4.925-1.406,10.133-1.689,15.202c-0.14,5.066,0,10.977,1.269,16.045c0.421,2.392,1.548,5.067,2.815,7.038
		c0.844,1.267,2.11,2.252,3.519,2.673c2.392,0.846,4.504,0,6.333-1.688c2.533-2.252,4.223-5.632,5.35-8.869
		C186.988,76.256,186.849,70.767,185.299,65.558z M169.253,43.179c-0.139,1.267-0.421,2.533-0.844,3.941
		c1.548,1.688,3.8,3.238,6.194,4.081c1.688,0.563,3.518,0.986,5.489,1.268c-1.266-2.11-2.816-4.082-4.503-5.771
		C173.757,45.008,171.787,43.602,169.253,43.179z"/>
	<path fill="#231F20" d="M234.987,52.188c-3.803,1.548-8.728,2.533-12.669,2.533c-3.238,0-6.334-0.845-8.727-2.675
		c-0.986-1.268-2.111-2.814-2.533-4.505c-0.563,0.705-1.409,1.548-2.113,2.112c-2.954,2.534-7.177,5.49-10.978,5.771
		c-2.112,0-3.802-0.704-5.068-1.971c-2.11-2.113-2.252-4.786-2.534-7.742c0-3.379,0.423-8.727,0.705-11.822
		c0.142-2.113,3.095-1.69,2.957,0.14c-0.281,4.926-0.704,8.304-0.704,11.402c0.281,2.533,0.423,4.643,1.689,5.77
		c0.844,0.845,1.69,1.268,2.815,1.268c3.096,0,6.898-2.534,9.431-4.646c1.267-1.125,2.534-2.533,3.659-3.8
		c0-1.971,0.423-3.8,0.986-5.348c0.422-1.408,1.97-1.408,2.816-0.422c0.844,1.547,0.14,3.66-0.846,5.35
		c-0.281,1.688,0,3.519,0.846,5.067c1.406,2.672,4.644,3.8,7.739,4.223C226.541,53.313,230.903,52.892,234.987,52.188z"/>
	<path fill="#231F20" d="M247.791,52.469c-2.956,1.267-7.037,2.956-10.134,3.095c-1.689,0.282-3.379,0.282-4.927-0.563
		c-0.844-0.703-1.408-1.547-2.112-3.8c-0.844-4.645-0.844-13.512-0.563-18.158c0-5.49,0.563-16.046,1.408-21.394
		c0.423-1.829,3.237-1.267,3.237,0.704c-1.127,4.645-1.548,16.187-1.548,21.113c-0.142,4.223-0.423,13.09,0.421,17.312
		c0.423,1.69,0.423,1.832,2.394,2.253c1.689,0.281,3.801,0.281,4.786,0C243.568,52.892,246.102,52.61,247.791,52.469z"/>
	<path fill="#231F20" d="M313.1,52.469c-1.547,0.423-3.234,0.844-4.644,1.267c-3.237,0.843-6.616,1.689-9.712,1.828
		c-2.957,0-5.771-0.843-7.882-2.953c-1.266-1.409-2.112-3.099-2.675-5.069c-0.704-1.829-0.844-3.939-1.267-6.052
		c-1.689,3.379-4.504,6.333-7.179,8.869c-1.549,1.405-2.534,2.533-3.801,2.954c-1.971,0.563-3.801,0-4.646-2.534
		c-0.421-1.267-0.702-2.814-0.421-10.556c0-5.77,0.421-12.527,0.563-18.159c0.424-7.458,0.704-10.556,1.126-17.733
		c0.142-1.972,3.098-1.689,2.955,0.42c-0.42,6.052-0.842,11.542-1.125,17.736c-0.422,5.631-0.563,12.388-0.846,17.877
		c0,7.037,0.283,9.289,0.846,10.133c0.846-0.139,2.112-1.408,3.238-2.251c2.674-2.534,5.209-5.771,7.178-9.148
		c0.423-0.845,1.831-4.645,1.831-4.645c0.844-1.83,3.378-1.267,3.378,0.704c0,3.519,0.28,8.163,1.126,11.823
		c0.14,1.408,0.844,2.956,1.83,3.942c1.267,1.971,3.379,2.392,5.771,2.533c2.675,0.422,6.333-0.142,9.431-0.563
		C309.865,52.892,311.413,52.61,313.1,52.469z"/>
	<path fill="#231F20" d="M339.421,52.188c-3.237,0.704-6.616,1.548-9.993,1.971c-3.38,0.563-6.898,1.267-10.275,1.405
		c-3.237,0.282-8.446,0.424-10.979-1.405c-1.128-0.846-1.549-2.112-1.549-3.38c0-1.97,0.702-4.081,1.267-5.771
		c1.126-2.533,2.533-4.786,4.505-6.896c2.109-2.394,5.629-4.646,8.585-4.927c2.392-0.142,4.081,1.125,4.504,3.237
		c0.563,2.533-0.844,6.052-2.394,8.163c-2.252,2.956-5.066,5.489-8.443,7.039c-0.847,0.422-1.689,0.845-2.675,1.268
		c2.109,0.421,5.066,0.421,7.179,0.421c3.377,0,6.757-0.281,10.133-0.421C332.665,52.61,336.042,52.469,339.421,52.188z
		 M309.86,51.624c1.27-0.703,2.676-1.266,3.803-1.971c2.954-1.408,5.206-3.799,6.896-6.475c1.127-1.548,2.394-4.504,1.971-6.194
		c0-0.423-0.423-0.843-1.267-0.563c-1.267,0.14-4.082,1.267-6.614,3.942c-1.408,1.688-2.956,4.081-3.803,5.91
		C310.283,47.822,309.579,50.074,309.86,51.624z"/>
	<path fill="#231F20" d="M376.158,52.188c-4.084,1.125-8.869,2.391-13.092,2.533c-3.379,0.28-7.179,0-9.149-2.675
		c-0.846-1.125-1.408-2.534-1.408-4.082c-1.548,1.268-3.377,2.533-5.348,3.66c-2.112,1.268-4.365,2.252-6.898,2.954
		c-2.11,0.423-4.223,0.423-5.489-1.124c-1.549-1.408-1.267-3.942-0.704-5.913c1.55-3.096,5.068-6.333,7.883-8.444
		c2.534-2.112,6.757-4.788,9.853-4.645c1.971,0.422,2.956,1.97,2.816,3.66c-0.283,1.267-0.846,2.11-1.269,2.252
		c-1.125,1.125-2.534-0.423-1.688-1.409c0-0.281,0.14-0.843,0.14-1.126c0-0.563-1.829,0-2.253,0c-1.971,0.845-4.08,2.393-5.771,3.66
		c-2.252,1.83-5.629,4.646-6.896,7.179c-0.423,1.406-0.281,2.533,0,2.956c0.421,0.563,2.11,0.422,2.673,0.422
		c2.394-0.705,4.504-1.549,6.616-2.534c2.111-1.266,5.209-3.376,6.896-5.348c0.422-1.267,1.127-2.252,1.689-3.098
		c0.844-1.267,1.689-2.111,2.533-2.814c0.847-0.563,1.971-0.423,2.394,0.281c0.563,0.422,0.563,1.266,0.14,1.831
		c-0.844,1.688-1.829,2.955-3.377,4.221c-1.267,2.535-0.985,4.927-0.423,5.773c1.267,2.11,4.646,2.533,7.039,2.533
		C366.866,53.031,372.355,52.61,376.158,52.188z"/>
	<path fill="#231F20" d="M395.157,34.452c-1.689-0.143-3.66-0.143-5.348,0.28c-2.675,0.563-4.364,2.252-6.055,4.646
		c-1.688,2.11-2.813,4.785-3.657,7.319c-0.565,2.391-0.986,4.223-1.409,5.771c-0.423,0.985-1.125,2.109-2.11,2.675
		c-0.846,0.42-2.112,0.42-2.816-0.143c-0.844-0.703-1.406-2.813-2.111-5.912c-0.422-3.235-0.843-6.756-0.984-8.867
		c-0.281-2.11,2.675-2.393,2.956-0.281c0.14,1.971,0.563,5.771,0.985,8.727c0.281,0.843,0.704,2.252,0.844,3.377
		c0.281-0.705,1.127-3.377,1.971-6.192c0.844-2.957,2.11-5.913,3.801-8.165c2.112-2.957,4.645-4.927,8.022-5.49
		c2.112-0.423,4.223-0.281,6.335,0.423C396.565,33.043,396.143,34.452,395.157,34.452z"/>
	<path fill="#231F20" d="M423.589,32.762c-4.223,2.394-10.698,4.646-16.892,5.49c0.423,11.683,0.846,13.089,0.846,14.779
		c-0.142,1.127-0.423,2.112-1.269,2.394c-0.844,0.139-1.688-0.281-1.83-1.127c-0.281-0.422-0.281-0.985,0.142-1.406
		c0,0-0.564-9.713-0.845-14.358c-1.83,0.141-3.8,0.141-5.49-0.281c-1.688-0.423-3.377-0.844-4.362-2.11
		c-0.844-0.565-1.267-1.689-1.548-2.534c0-0.845,0.704-1.689,1.548-1.689c1.267-0.142,1.267,1.125,1.689,1.548
		c0.563,0.986,2.11,1.408,3.096,1.689c1.689,0.421,3.38,0.421,4.928,0.421c0-5.487-0.423-18.017,0.42-23.224
		c0.142-2.112,3.099-1.689,2.957,0c0,1.407-0.844,4.645-0.281,22.942C412.047,34.875,414.72,34.452,423.589,32.762z"/>
</g>
<g>
</g>
<g>
</g>
<g>
</g>
<g>
</g>
<g>
</g>
<g>
</g>
<g>
</g>
<g>
</g>
<g>
</g>
<g>
</g>
<g>
</g>
<g>
</g>
<g>
</g>
<g>
</g>
<g>
</g>
</svg>
